<svg xmlns="http://www.w3.org/2000/svg" viewBox="0 0 512 512" width="100%" height="100%">
  <defs>
    <clipPath id="dome-clip">
      <path d="M 186 190 C 186 90, 326 90, 326 190 Z" />
    </clipPath>
  </defs>

  <g transform="rotate(45, 256, 256)">

    <polygon points="236,340 276,340 256,480" fill="#c4cbd1" stroke="#1a4c73" stroke-width="10" stroke-linejoin="round"/>
    <polygon points="256,345 268,345 256,465" fill="#828b94" /> <path d="M 196 200 L 316 200 L 326 320 L 186 320 Z" fill="#4995cd" stroke="#1a4c73" stroke-width="12" stroke-linejoin="round"/>
    <path d="M 256 200 L 316 200 L 326 320 L 256 320 Z" fill="#3681b8"/> <line x1="210" y1="215" x2="200" y2="305" stroke="#74b6e5" stroke-width="8" stroke-linecap="round"/> <rect x="156" y="300" width="200" height="60" rx="30" fill="#4995cd" stroke="#1a4c73" stroke-width="12" stroke-linejoin="round"/>
    <path d="M 176 315 Q 206 305 246 305" fill="none" stroke="#74b6e5" stroke-width="8" stroke-linecap="round"/> <g clip-path="url(#dome-clip)">
      <rect x="170" y="80" width="170" height="120" fill="#e47a25" />
      <rect x="170" y="115" width="170" height="40" fill="#f8ece4" /> </g>
    <path d="M 186 190 C 186 90, 326 90, 326 190 Z" fill="none" stroke="#7f2e10" stroke-width="12" /> <rect x="166" y="180" width="180" height="40" rx="15" fill="#e47a25" stroke="#7f2e10" stroke-width="12" stroke-linejoin="round"/>
    
    <line x1="186" y1="180" x2="186" y2="220" stroke="#7f2e10" stroke-width="6"/>
    <line x1="206" y1="180" x2="206" y2="220" stroke="#7f2e10" stroke-width="6"/>
    <line x1="226" y1="180" x2="226" y2="220" stroke="#7f2e10" stroke-width="6"/>
    <line x1="246" y1="180" x2="246" y2="220" stroke="#7f2e10" stroke-width="6"/>
    <line x1="266" y1="180" x2="266" y2="220" stroke="#7f2e10" stroke-width="6"/>
    <line x1="286" y1="180" x2="286" y2="220" stroke="#7f2e10" stroke-width="6"/>
    <line x1="306" y1="180" x2="306" y2="220" stroke="#7f2e10" stroke-width="6"/>
    <line x1="326" y1="180" x2="326" y2="220" stroke="#7f2e10" stroke-width="6"/>

    <circle cx="236" cy="80" r="16" fill="#7f2e10"/>
    <circle cx="276" cy="80" r="16" fill="#7f2e10"/>
    <circle cx="256" cy="60" r="16" fill="#7f2e10"/>
    <circle cx="230" cy="100" r="16" fill="#7f2e10"/>
    <circle cx="280" cy="100" r="16" fill="#7f2e10"/>
    <circle cx="256" cy="85" r="30" fill="#7f2e10"/>
    
    <circle cx="256" cy="85" r="24" fill="#e47a25"/>
    <circle cx="236" cy="80" r="10" fill="#e47a25"/>
    <circle cx="276" cy="80" r="10" fill="#e47a25"/>
    <circle cx="256" cy="60" r="10" fill="#e47a25"/>
    <circle cx="230" cy="100" r="10" fill="#e47a25"/>
    <circle cx="280" cy="100" r="10" fill="#e47a25"/>
  </g>
</svg>
